<svg id="visual" viewBox="0 0 900 600" width="900" height="600" xmlns="http://www.w3.org/2000/svg" xmlns:xlink="http://www.w3.org/1999/xlink" version="1.1"><rect x="0" y="0" width="900" height="600" fill="#333333"></rect><path d="M0 492L113 492L113 399L225 399L225 496L338 496L338 373L450 373L450 455L563 455L563 577L675 577L675 510L788 510L788 452L900 452L900 506L900 601L900 601L788 601L788 601L675 601L675 601L563 601L563 601L450 601L450 601L338 601L338 601L225 601L225 601L113 601L113 601L0 601Z" fill="#ef1313" stroke-linecap="square" stroke-linejoin="miter"></path></svg>